<?xml version="1.0" encoding="utf-8"?>
<!-- Generator: Adobe Illustrator 24.3.0, SVG Export Plug-In . SVG Version: 6.00 Build 0)  -->
<svg version="1.1" id="Layer_1" xmlns="http://www.w3.org/2000/svg" xmlns:xlink="http://www.w3.org/1999/xlink" x="0px" y="0px"
	 viewBox="0 0 512 512" style="enable-background:new 0 0 512 512;" xml:space="preserve">
<style type="text/css">
	.st0{fill:#707070;}
</style>
<polygon class="st0" points="473.6,331.8 396.2,281.4 396.2,310.5 44,310.5 44,353.1 396.2,353.1 396.2,382.2 "/>
<path class="st0" d="M161,267.5c-0.9,0-1.8-0.1-2.6-0.2c-3.7-0.7-6.9-2.8-9-5.9L114,209.6c-4.4-6.4-2.7-15.2,3.7-19.6l27.9-19.1
	c3.1-2.1,6.9-2.9,10.6-2.2c3.7,0.7,6.9,2.8,9,5.9l35.4,51.8c2.1,3.1,2.9,6.9,2.2,10.6c-0.7,3.7-2.8,6.9-5.9,9L169,265.1
	C166.6,266.7,163.9,267.5,161,267.5z M153.5,178.4c-0.8,0-1.6,0.2-2.3,0.7l-27.9,19.1c-1.9,1.3-2.4,3.8-1.1,5.7l35.4,51.8
	c1.3,1.9,3.8,2.3,5.7,1.1l27.9-19.1c0.9-0.6,1.5-1.6,1.7-2.6c0.2-1.1,0-2.2-0.6-3.1l-35.4-51.8c-0.6-0.9-1.6-1.5-2.6-1.7
	C154,178.5,153.7,178.4,153.5,178.4z"/>
<path class="st0" d="M328.1,264.9c-0.9,0-1.8-0.1-2.8-0.3l-75.6-14.9c-3.7-0.7-6.9-2.9-9-6s-2.9-6.9-2.1-10.6l8.6-43.6
	c1.5-7.6,8.9-12.6,16.6-11.1l75.6,14.9c3.7,0.7,6.9,2.9,9,6s2.9,6.9,2.1,10.6l-8.6,43.6c-0.7,3.7-2.9,6.9-6,9
	C333.6,264.1,330.9,264.9,328.1,264.9z M248.4,235.1c-0.2,1.1,0,2.2,0.6,3.1c0.6,0.9,1.5,1.5,2.6,1.7l75.6,14.9
	c1.1,0.2,2.2,0,3.1-0.6s1.5-1.5,1.7-2.6l8.6-43.6c0.2-1.1,0-2.2-0.6-3.1c-0.6-0.9-1.5-1.5-2.6-1.7l-75.6-14.9
	c-1.1-0.2-2.2,0-3.1,0.6s-1.5,1.5-1.7,2.6L248.4,235.1z"/>
<path class="st0" d="M221.9,178.4c-29.1,0-52.8-23.7-52.8-52.8s23.7-52.8,52.8-52.8s52.8,23.7,52.8,52.8S251,178.4,221.9,178.4z
	 M221.9,82.9c-23.6,0-42.8,19.2-42.8,42.8s19.2,42.8,42.8,42.8s42.8-19.2,42.8-42.8S245.5,82.9,221.9,82.9z"/>
</svg>
