<?xml version="1.0" encoding="utf-8"?>
<!-- Generator: Adobe Illustrator 24.3.0, SVG Export Plug-In . SVG Version: 6.00 Build 0)  -->
<svg version="1.1" id="Layer_1" xmlns="http://www.w3.org/2000/svg" xmlns:xlink="http://www.w3.org/1999/xlink" x="0px" y="0px"
	 viewBox="0 0 512 512" style="enable-background:new 0 0 512 512;" xml:space="preserve">
<style type="text/css">
	.st0{fill:#707070;}
</style>
<g>
	<polygon class="st0" points="473.56,331.8 396.16,281.4 396.16,310.49 44,310.49 44,353.09 396.16,353.09 396.16,382.18 	"/>
	<path class="st0" d="M148.36,168.17l15.75,89.16c1.14,6.28,6.61,10.84,12.99,10.84h149c6.39,0,11.86-4.57,13-10.86l15.74-89.15
		c5.59-1.67,9.41-6.81,9.41-12.64v-11.44c0-7.29-5.91-13.2-13.2-13.2c0,0-0.01,0-0.01,0H335.2v-22c0-7.29-5.91-13.2-13.2-13.2
		h-12.14l30.27-30.27c5.16-5.15,5.16-13.51,0.01-18.67s-13.51-5.16-18.67-0.01l-56.71,56.68V82.49c0-7.29-5.91-13.2-13.2-13.2h-26.4
		c-7.29,0-13.2,5.91-13.2,13.2v14.08c-23.8-4.86-47.04,10.49-51.91,34.3c0,0.01,0,0.01,0,0.02h-7.92c-7.29,0-13.2,5.91-13.2,13.2
		c0,0,0,0.01,0,0.01v11.44C138.94,161.35,142.77,166.49,148.36,168.17z M322.01,104.49c2.43,0,4.4,1.97,4.4,4.4v22h-51.74l26.4-26.4
		H322.01z M327.7,52.98c1.69-1.75,4.47-1.8,6.22-0.11c1.75,1.69,1.8,4.47,0.11,6.22c-0.04,0.04-0.07,0.07-0.11,0.11l-79.19,79.19
		c-1.75,1.69-4.53,1.64-6.22-0.11c-1.65-1.7-1.65-4.41,0-6.11L327.7,52.98z M220.77,82.49c0-2.43,1.97-4.4,4.4-4.4h26.4
		c2.43,0,4.4,1.97,4.4,4.4v29.74l-11.69,11.72c-4.25-11-12.71-19.85-23.5-24.59V82.49z M203.17,104.48
		c16.05,0.01,30.06,10.86,34.09,26.4h-68.17C173.08,115.32,187.12,104.46,203.17,104.48z M147.74,144.09c0-2.43,1.97-4.4,4.4-4.4h87
		c2.42,6.87,9.96,10.48,16.84,8.06c1.86-0.66,3.55-1.72,4.95-3.12l4.94-4.94h85.18c2.43,0,4.4,1.97,4.4,4.4l-0.05,11.42
		c0,2.43-1.97,4.4-4.4,4.4h-81.83c-2.43,0-4.4,1.97-4.4,4.4c0,2.43,1.97,4.4,4.4,4.4h76.64l-15.37,87.03
		c-0.38,2.09-2.2,3.62-4.33,3.62h-149c-2.12,0-3.94-1.51-4.33-3.59l-15.34-87.04h76.55c2.43,0,4.4-1.97,4.4-4.4
		c0-2.43-1.97-4.4-4.4-4.4h-81.83c-2.43,0-4.4-1.97-4.4-4.4V144.09z"/>
	<path class="st0" d="M251.59,168.73c2.43,0,4.4-1.97,4.4-4.4s-1.97-4.4-4.4-4.4c-2.43,0-4.4,1.97-4.4,4.4
		S249.16,168.73,251.59,168.73z"/>
</g>
</svg>
