<?xml version="1.0" encoding="utf-8"?>
<!-- Generator: Adobe Illustrator 24.3.0, SVG Export Plug-In . SVG Version: 6.00 Build 0)  -->
<svg version="1.1" id="Layer_1" xmlns="http://www.w3.org/2000/svg" xmlns:xlink="http://www.w3.org/1999/xlink" x="0px" y="0px"
	 viewBox="0 0 512 512" style="enable-background:new 0 0 512 512;" xml:space="preserve">
<style type="text/css">
	.st0{fill:#00A99D;}
</style>
<polygon class="st0" points="389.67,150.43 389.67,180.42 467.88,258.63 389.67,336.84 389.67,366.83 497.87,258.63 "/>
<polygon class="st0" points="120.33,366.83 120.33,336.84 42.12,258.63 120.33,180.42 120.33,150.43 12.13,258.63 "/>
<path class="st0" d="M256.06,388c-69.58,0-126.19-56.61-126.19-126.19c0-34.47,13.83-81.1,35.24-118.78
	C191.13,97.23,223.43,72,256.06,72s64.93,25.23,90.95,71.03c21.41,37.68,35.24,84.31,35.24,118.78
	C382.25,331.39,325.64,388,256.06,388z M256.06,93.21c-24.31,0-50.74,21.98-72.51,60.3c-19.42,34.19-32.47,77.71-32.47,108.31
	c0,57.89,47.09,104.98,104.98,104.98s104.98-47.09,104.98-104.98c0-30.59-13.05-74.11-32.47-108.31
	C306.8,115.19,280.37,93.21,256.06,93.21z"/>
<path class="st0" d="M218.39,326.25l6.61-49.85h-20.86v-15.01h23.15l4.83-36.88h-21.87V209.5h24.16l6.61-48.58h14.75l-6.36,48.58
	h26.45l6.61-48.58h15.01l-6.36,48.58H312v15.01h-23.15l-4.58,36.88h21.87v15.01h-24.16l-6.61,49.85h-15.26l6.61-49.85h-26.45
	l-6.61,49.85H218.39z M269.01,261.39l4.83-36.88h-26.45l-4.83,36.88H269.01z"/>
</svg>
