<?xml version="1.0" encoding="utf-8"?>
<!-- Generator: Adobe Illustrator 23.0.1, SVG Export Plug-In . SVG Version: 6.00 Build 0)  -->
<svg version="1.1" id="Layer_1" xmlns="http://www.w3.org/2000/svg" xmlns:xlink="http://www.w3.org/1999/xlink" x="0px" y="0px"
	 width="100px" height="100px" viewBox="0 0 100 100" style="enable-background:new 0 0 100 100;" xml:space="preserve">
<style type="text/css">
	.st0{fill-rule:evenodd;clip-rule:evenodd;}
</style>
<g>
	<g>
		<path class="st0" d="M43.35,19.09c-11.47,2.95-19.94,13.35-19.94,25.74v17.72c0,1.63-1.33,2.96-2.95,2.96
			c-3.26,0-5.91,2.65-5.91,5.91v4.43c0,0.81,0.66,1.47,1.48,1.47h67.93c0.82,0,1.48-0.67,1.48-1.47v-4.43
			c0-3.26-2.66-5.91-5.91-5.91c-1.63,0-2.95-1.31-2.95-2.96V44.83c0-12.39-8.47-22.79-19.94-25.74v-3.05c0-3.68-2.98-6.65-6.65-6.65
			c-3.66,0-6.65,2.98-6.65,6.65V19.09z M39.66,80.27h20.68c0,5.71-4.63,10.34-10.34,10.34S39.66,85.98,39.66,80.27z"/>
	</g>
</g>
</svg>
