<?xml version="1.0" encoding="utf-8"?>
<!-- Generator: Adobe Illustrator 24.3.0, SVG Export Plug-In . SVG Version: 6.00 Build 0)  -->
<svg version="1.1" id="Layer_1" xmlns="http://www.w3.org/2000/svg" xmlns:xlink="http://www.w3.org/1999/xlink" x="0px" y="0px"
	 viewBox="0 0 512 512" style="enable-background:new 0 0 512 512;" xml:space="preserve">
<style type="text/css">
	.st0{fill:#0A370F;}
</style>
<path id="Path_1905" class="st0" d="M255.57,34c-17.5,0-31.68,14.18-31.68,31.68v22.55c-66.67,14.68-114.13,73.8-114.04,142.06
	v120.38h-6.34c-20.99-0.08-38.08,16.88-38.15,37.87c-0.08,20.99,16.88,38.07,37.87,38.15c0.09,0,0.19,0,0.28,0h114.04v12.67
	c0,20.99,17.02,38.01,38.01,38.01c20.99,0,38.01-17.02,38.01-38.01V426.7h114.04c20.99,0.08,38.08-16.88,38.15-37.87
	c0.08-20.99-16.88-38.07-37.87-38.15c-0.09,0-0.19,0-0.28,0h-6.34V230.3c0.09-68.27-47.37-127.39-114.04-142.06V65.68
	C287.25,48.18,273.07,34,255.57,34z M255.57,46.67c10.39-0.11,18.9,8.23,19.01,18.62c0,0.13,0,0.26,0,0.38v20.38
	c-12.6-1.85-25.41-1.85-38.01,0V65.68c-0.11-10.39,8.23-18.9,18.62-19.01C255.32,46.67,255.45,46.67,255.57,46.67z M255.57,97.36
	c73.19-0.29,132.75,58.8,133.05,131.99c0,0.35,0,0.71,0,1.06v126.71c0,3.5,2.84,6.34,6.34,6.34h12.67c14,0,25.34,11.35,25.34,25.34
	s-11.35,25.34-25.34,25.34H103.65c-14,0-25.34-11.35-25.34-25.34s11.35-25.34,25.34-25.34l0,0h12.67c3.5,0,6.34-2.84,6.34-6.34
	V230.4c-0.32-73.19,58.76-132.77,131.95-133.09c0.32,0,0.65,0,0.97,0V97.36z M230.23,426.57h50.68v12.67
	c0.01,14-11.33,25.35-25.33,25.36c-14,0.01-25.35-11.33-25.36-25.33c0-0.01,0-0.02,0-0.03V426.57z"/>
</svg>
