<?xml version="1.0" encoding="utf-8"?>
<!-- Generator: Adobe Illustrator 23.0.1, SVG Export Plug-In . SVG Version: 6.00 Build 0)  -->
<svg version="1.1" id="Layer_1" xmlns="http://www.w3.org/2000/svg" xmlns:xlink="http://www.w3.org/1999/xlink" x="0px" y="0px"
	 viewBox="0 0 512 512" style="enable-background:new 0 0 512 512;" xml:space="preserve">
<path d="M256,278h107v107H256V278z M341,86V43h43v43h21c11,0,21,4,30,13s13,19,13,30v298c0,11-4,21-13,30s-19,13-30,13H107
	c-12,0-22-4-30-13c-9-9-13-19-13-30V129c0-11,4-21,13-30c8-9,18-13,30-13h21V43h43v43H341z M107,427h298V193H107V427z"/>
</svg>
