<?xml version="1.0" encoding="utf-8"?>
<!-- Generator: Adobe Illustrator 23.0.1, SVG Export Plug-In . SVG Version: 6.00 Build 0)  -->
<svg version="1.1" id="Layer_1" xmlns="http://www.w3.org/2000/svg" xmlns:xlink="http://www.w3.org/1999/xlink" x="0px" y="0px"
	 viewBox="0 0 512 512" style="enable-background:new 0 0 512 512;" xml:space="preserve">
<path d="M436,77c-9-9-19-13-31-13H107c-12,0-22,4-30,13c-9,9-13,19-13,30v298c0,11,4,21,13,30c8,9,18,13,30,13h298c12,0,22-4,31-13
	c8-9,12-19,12-30V107C448,96,444,86,436,77z M282.2,389h-51.3v-51.3h51.3V389z M342.1,227.6c-6.4,10.1-20.1,23.9-41,41.3
	c-10.8,9-17.6,16.3-20.2,21.7c-2.6,5.5-3.8,15.3-3.6,29.4h-46.6c-0.1-6.7-0.2-10.8-0.2-12.2c0-15.1,2.5-27.5,7.5-37.2
	c5-9.7,15-20.7,29.9-32.9c15-12.2,23.9-20.1,26.8-23.9c4.5-6,6.8-12.5,6.8-19.7c0-10-4-18.5-12-25.7c-8-7.1-18.7-10.7-32.2-10.7
	c-13,0-23.9,3.7-32.7,11.1c-8.8,7.4-14.8,18.7-18.1,34l-47.1-5.8c1.3-21.8,10.6-40.3,27.8-55.5c17.2-15.2,39.8-22.8,67.8-22.8
	c29.5,0,52.9,7.7,70.3,23.1c17.4,15.4,26.1,33.3,26.1,53.8C351.7,206.8,348.5,217.5,342.1,227.6z"/>
</svg>
