<?xml version="1.0" encoding="utf-8"?>
<!-- Generator: Adobe Illustrator 23.0.1, SVG Export Plug-In . SVG Version: 6.00 Build 0)  -->
<svg version="1.1" id="Layer_1" xmlns="http://www.w3.org/2000/svg" xmlns:xlink="http://www.w3.org/1999/xlink" x="0px" y="0px"
	 viewBox="0 0 512 512" style="enable-background:new 0 0 512 512;" xml:space="preserve">
<path d="M107,64h298c12,0,22,4,31,13c8,9,12,19,12,30v298c0,11-4,21-12,30c-9,9-19,13-31,13H107c-12,0-22-4-30-13c-9-9-13-19-13-30
	V107c0-11,4-21,13-30C85,68,95,64,107,64z M107,256l106,107l192-192l-30-31L213,302l-76-76L107,256z"/>
</svg>
