<?xml version="1.0" encoding="utf-8"?>
<!-- Generator: Adobe Illustrator 24.2.1, SVG Export Plug-In . SVG Version: 6.00 Build 0)  -->
<svg version="1.1" id="Layer_1" xmlns="http://www.w3.org/2000/svg" xmlns:xlink="http://www.w3.org/1999/xlink" x="0px" y="0px"
	 viewBox="0 0 512 512" style="enable-background:new 0 0 512 512;" xml:space="preserve">
<path d="M354,286c-9-9-13-19-13-30s4-21,13-30s19-13,30-13s21,4,30,13s13,19,13,30s-4,21-13,30s-19,13-30,13S363,295,354,286z
	 M286,226c9,9,13,19,13,30s-4,21-13,30s-19,13-30,13s-21-4-30-13s-13-19-13-30s4-21,13-30s19-13,30-13S277,217,286,226z M158,226
	c9,9,13,19,13,30s-4,21-13,30s-19,13-30,13s-21-4-30-13s-13-19-13-30s4-21,13-30s19-13,30-13S149,217,158,226z"/>
</svg>
