<?xml version="1.0" encoding="utf-8"?>
<!-- Generator: Adobe Illustrator 24.2.1, SVG Export Plug-In . SVG Version: 6.00 Build 0)  -->
<svg version="1.1"
	 id="Layer_1" xmlns:cc="http://creativecommons.org/ns#" xmlns:dc="http://purl.org/dc/elements/1.1/" xmlns:inkscape="http://www.inkscape.org/namespaces/inkscape" xmlns:rdf="http://www.w3.org/1999/02/22-rdf-syntax-ns#" xmlns:sodipodi="http://sodipodi.sourceforge.net/DTD/sodipodi-0.dtd" xmlns:svg="http://www.w3.org/2000/svg"
	 xmlns="http://www.w3.org/2000/svg" xmlns:xlink="http://www.w3.org/1999/xlink" x="0px" y="0px" viewBox="0 0 512 512"
	 style="enable-background:new 0 0 512 512;" xml:space="preserve">
	<path d="M286,158c-9,9-19,13-30,13s-21-4-30-13s-13-19-13-30s4-21,13-30s19-13,30-13s21,4,30,13s13,19,13,30S295,149,286,158zM226,226c9-9,19-13,30-13s21,4,30,13s13,19,13,30s-4,21-13,30s-19,13-30,13s-21-4-30-13s-13-19-13-30S217,235,226,226z M226,354c9-9,19-13,30-13s21,4,30,13s13,19,13,30s-4,21-13,30s-19,13-30,13s-21-4-30-13s-13-19-13-30S217,363,226,354z"/>
</svg>
