<?xml version="1.0" encoding="utf-8"?>
<!-- Generator: Adobe Illustrator 24.3.0, SVG Export Plug-In . SVG Version: 6.00 Build 0)  -->
<svg version="1.1" id="Layer_1" xmlns="http://www.w3.org/2000/svg" xmlns:xlink="http://www.w3.org/1999/xlink" x="0px" y="0px"
	 viewBox="0 0 512 512" style="enable-background:new 0 0 512 512;" xml:space="preserve">
<path id="facebook_5_" d="M100.07,475.67h143.46V319.28h-51.55v-51.55h51.55v-64.49c0-35.62,28.87-64.49,64.49-64.49l0,0h64.49
	v51.55h-51.65c-14.23,0.01-25.77,11.55-25.78,25.78v51.55h75.05l-8.6,51.55h-66.45v156.39h116.01c35.62,0,64.49-28.87,64.49-64.49
	V100.2c0-35.62-28.87-64.49-64.49-64.49H100.07c-35.62,0-64.49,28.87-64.49,64.49c0,0,0,0,0,0v311.02
	C35.6,446.82,64.46,475.67,100.07,475.67z M61.36,100.2c0-21.38,17.33-38.71,38.71-38.71l0,0h311.02
	c21.36,0.02,38.67,17.35,38.67,38.71v311.02c-0.02,21.35-17.32,38.65-38.67,38.67h-90.22v-104.8h62.48l17.18-103.12h-79.66v-25.8
	h77.34V113.05h-90.22c-49.8,0.06-90.16,40.42-90.22,90.22v38.67h-51.57v103.12h51.55v104.8H100.07
	c-21.35-0.02-38.65-17.32-38.67-38.67L61.36,100.2z"/>
</svg>
