<?xml version="1.0" encoding="utf-8"?>
<!-- Generator: Adobe Illustrator 24.3.0, SVG Export Plug-In . SVG Version: 6.00 Build 0)  -->
<svg version="1.1" id="Layer_1" xmlns="http://www.w3.org/2000/svg" xmlns:xlink="http://www.w3.org/1999/xlink" x="0px" y="0px"
	 viewBox="0 0 512 512" style="enable-background:new 0 0 512 512;" xml:space="preserve">
<style type="text/css">
	.st0{fill:#009245;}
</style>
<path id="Path_1804" class="st0" d="M290.74,102.76H49.68c-9,0-16.29,7.29-16.29,16.29s7.29,16.29,16.29,16.29h241.06
	c7.37,24.86,30.25,41.89,56.18,41.81c25.76,0.06,48.42-16.98,55.51-41.74h59.47c9,0,16.29-7.29,16.29-16.29s-7.29-16.29-16.29-16.29
	h-59.47c-9.05-30.84-41.39-48.51-72.23-39.46c-19.01,5.58-33.88,20.45-39.46,39.46L290.74,102.76z M371.74,119.06
	c-0.03,14.06-11.45,25.44-25.52,25.42c-14.06-0.03-25.44-11.45-25.42-25.52c0.03-14.03,11.39-25.39,25.42-25.42
	c14.01,0.23,25.31,11.54,25.52,25.55V119.06z"/>
<path id="Path_1805" class="st0" d="M94.78,233.41h-45.1c-9,0-16.29,7.29-16.29,16.29c0,9,7.29,16.29,16.29,16.29h45.07
	c7.37,24.86,30.25,41.89,56.18,41.81c25.78,0.06,48.46-17.02,55.53-41.81h255.45c9,0,16.29-7.29,16.29-16.29
	c0-9-7.29-16.29-16.29-16.29H206.47c-9.05-30.84-41.39-48.51-72.23-39.46C115.23,199.52,100.36,214.39,94.78,233.41z M175.77,249.7
	c-0.03,14.06-11.45,25.44-25.52,25.42c-14.06-0.03-25.44-11.45-25.42-25.52c0.03-14.05,11.42-25.42,25.47-25.42
	c14.08,0.02,25.48,11.45,25.47,25.53c0,0.01,0,0.01,0,0.02V249.7z"/>
<path id="Path_1806" class="st0" d="M212.35,377.1H49.68c-9,0-16.29,7.29-16.29,16.29c0,9,7.29,16.29,16.29,16.29h162.64
	c7.37,24.86,30.25,41.89,56.18,41.81c25.78,0.06,48.46-17.02,55.53-41.81h137.88c9,0,16.29-7.29,16.29-16.29
	c0-9-7.29-16.29-16.29-16.29H324.05c-9.05-30.84-41.39-48.51-72.23-39.46C232.8,343.22,217.93,358.09,212.35,377.1z M293.35,393.39
	c-0.03,14.06-11.45,25.44-25.52,25.42c-14.06-0.03-25.44-11.45-25.42-25.52c0.03-14.05,11.42-25.42,25.47-25.42
	c14.08,0.02,25.48,11.45,25.47,25.53c0,0.01,0,0.01,0,0.02V393.39z"/>
</svg>
