<?xml version="1.0" encoding="utf-8"?>
<!-- Generator: Adobe Illustrator 24.3.0, SVG Export Plug-In . SVG Version: 6.00 Build 0)  -->
<svg version="1.1" id="Layer_1" xmlns="http://www.w3.org/2000/svg" xmlns:xlink="http://www.w3.org/1999/xlink" x="0px" y="0px"
	 viewBox="0 0 512 512" style="enable-background:new 0 0 512 512;" xml:space="preserve">
<style type="text/css">
	.st0{fill:#D9E021;}
</style>
<path id="noun_Save_705944" class="st0" d="M77.3,471.38h356.56c20.65-0.03,37.38-16.76,37.41-37.41V97.52L416.79,40H77.3
	c-20.65,0.03-37.38,16.76-37.41,37.41v356.56C39.91,454.62,56.65,471.35,77.3,471.38z M136.23,458.82V278.07H374.9v180.75H136.23z
	 M374.9,52.56v103.48h-66.79V52.56H374.9z M295.53,52.56v103.48H136.25V52.56H295.53z M52.44,77.41
	c0.01-13.72,11.13-24.84,24.85-24.85h46.47V168.6h263.62V52.56h23.97l47.31,49.97v331.44c-0.01,13.72-11.13,24.84-24.85,24.85
	h-46.42V265.52H123.76v193.31H77.3c-13.72-0.01-24.84-11.13-24.85-24.85V77.41z"/>
</svg>
