<svg height='100px' width='100px'  fill="#000000" xmlns="http://www.w3.org/2000/svg" viewBox="0 0 24 24" x="0px" y="0px"><path d="M19.6407892,5.28002143 C19.761131,5.57010966 19.6949017,5.90496031 19.4725849,6.12625708 L14.1115153,11.4871357 C14.0325771,11.5665855 13.9307452,11.8120692 13.9307452,11.9230941 L13.9307452,19.4230835 C13.9307452,19.7377684 13.7413168,20.0211754 13.4522717,20.1400043 C13.3574406,20.1799356 13.2560894,20.2 13.1538025,20.2 C12.9486003,20.2 12.7510861,20.1190178 12.604466,19.9724029 L10.2966954,17.6647139 C10.1509341,17.5189577 10.0690873,17.3215704 10.0690873,17.1153868 L10.0690873,11.9230864 C10.0690873,11.8115145 9.96763857,11.566448 9.88877575,11.487588 L4.52693213,6.12593317 C4.30531681,5.90333353 4.23895092,5.56951302 4.35898455,5.28002882 C4.4784587,4.98942061 4.76188034,4.8 5.07657651,4.8 L18.9232002,4.8 C19.23789,4.8 19.5213041,4.98941974 19.6407892,5.28002143 Z"></path></svg>