<?xml version="1.0" encoding="utf-8"?>
<!-- Generator: Adobe Illustrator 24.3.0, SVG Export Plug-In . SVG Version: 6.00 Build 0)  -->
<svg version="1.1" id="Layer_1" xmlns="http://www.w3.org/2000/svg" xmlns:xlink="http://www.w3.org/1999/xlink" x="0px" y="0px"
	 viewBox="0 0 512 512" style="enable-background:new 0 0 512 512;" xml:space="preserve">
<style type="text/css">
	.st0{fill:#4FB65C;}
</style>
<path id="Path_1916" class="st0" d="M412.95,85.51h-68.07V72.45C344.75,51.26,327.6,34.12,306.41,34h-92.88
	c-21.18,0.14-38.31,17.27-38.45,38.45v13.07H98.15c-20.44,0.02-36.99,16.6-36.97,37.04c0.02,20.41,16.56,36.95,36.97,36.97h15.23
	v253.99c-0.21,35.06,28.04,63.65,63.1,63.86c0.29,0,0.59,0,0.88,0h165.44c35.06,0.21,63.65-28.04,63.86-63.1c0-0.25,0-0.5,0-0.76
	V159.65h6.28c20.4-0.09,36.92-16.6,37-37c0.24-20.26-15.98-36.88-36.24-37.13C413.46,85.51,413.21,85.51,412.95,85.51z
	 M197.44,72.45c0.1-9.17,7.51-16.58,16.68-16.68H307c9.17,0.1,16.58,7.51,16.68,16.68v13.07H197.41L197.44,72.45z M384.68,414.23
	c-0.02,23.24-18.85,42.07-42.09,42.09H177.37c-23.24-0.02-42.07-18.85-42.09-42.09V160.27h249.41V414.23z M412.95,138.47H98.15
	c-8.39-0.05-15.18-6.84-15.23-15.23c0.25-8.31,6.92-14.99,15.23-15.23h314.8c8.41,0.01,15.23,6.84,15.22,15.25
	C428.16,131.66,421.35,138.46,412.95,138.47z"/>
<path id="Path_1917" class="st0" d="M197.6,388.82c5.96-0.13,10.77-4.94,10.9-10.9V225.58c0.32-6.01-4.29-11.15-10.3-11.47
	c-6.01-0.32-11.15,4.29-11.47,10.3c-0.02,0.39-0.02,0.78,0,1.17v152.44c-0.07,5.9,4.65,10.74,10.55,10.81
	C197.39,388.82,197.49,388.82,197.6,388.82z"/>
<path id="Path_1918" class="st0" d="M259.26,388.82c5.96-0.13,10.77-4.94,10.9-10.9V225.58c0.32-6.01-4.29-11.15-10.3-11.47
	c-6.01-0.32-11.15,4.29-11.47,10.3c-0.02,0.39-0.02,0.78,0,1.17v152.44c-0.07,5.9,4.65,10.74,10.55,10.81
	C259.05,388.82,259.15,388.82,259.26,388.82z"/>
<path id="Path_1919" class="st0" d="M320.95,388.82c5.96-0.13,10.77-4.94,10.9-10.9V225.58c0.32-6.01-4.29-11.15-10.3-11.47
	c-6.01-0.32-11.15,4.29-11.47,10.3c-0.02,0.39-0.02,0.78,0,1.17v152.44c-0.07,5.9,4.65,10.74,10.55,10.81
	C320.74,388.82,320.85,388.82,320.95,388.82z"/>
</svg>
