<?xml version="1.0" encoding="utf-8"?>
<!-- Generator: Adobe Illustrator 23.0.1, SVG Export Plug-In . SVG Version: 6.00 Build 0)  -->
<svg version="1.1" id="Layer_1" xmlns="http://www.w3.org/2000/svg" xmlns:xlink="http://www.w3.org/1999/xlink" x="0px" y="0px"
	 width="512px" height="512px" viewBox="0 0 512 512" style="enable-background:new 0 0 512 512;" xml:space="preserve">
<path d="M415,277l45,35c5,3,5,8,2,14l-43,74c-3,5-7,6-13,4l-53-21c-14,10-26,17-36,21l-8,56c-1,6-5,9-10,9h-86c-5,0-9-3-10-9l-8-56
	c-13-5-25-12-36-21l-53,21c-6,2-10,1-13-4l-43-74c-3-6-3-11,2-14l45-35c-1-5-1-12-1-21s0-16,1-21l-45-35c-5-3-5-8-2-14l43-74
	c3-5,7-6,13-4l53,21c14-10,26-17,36-21l8-56c1-6,5-9,10-9h86c5,0,9,3,10,9l8,56c13,5,25,12,36,21l53-21c6-2,10-1,13,4l43,74
	c3,6,3,11-2,14l-45,35c1,5,1,12,1,21S416,272,415,277z M203,309c15,15,32,22,53,22s38-7,53-22s22-32,22-53s-7-38-22-53s-32-22-53-22
	s-38,7-53,22s-22,32-22,53S188,294,203,309z"/>
</svg>
