<?xml version="1.0" encoding="utf-8"?>
<!-- Generator: Adobe Illustrator 24.3.0, SVG Export Plug-In . SVG Version: 6.00 Build 0)  -->
<svg version="1.1" id="Layer_1" xmlns="http://www.w3.org/2000/svg" xmlns:xlink="http://www.w3.org/1999/xlink" x="0px" y="0px"
	 viewBox="0 0 512 512" style="enable-background:new 0 0 512 512;" xml:space="preserve">
<style type="text/css">
	.st0{fill:#0A370F;}
</style>
<path id="Path_159" class="st0" d="M447.3,101.67c-40.92-47.16-112.32-52.22-159.49-11.3c-8.14,7.06-15.22,15.24-21.04,24.31
	c-4.09,5.8-7.83,11.85-11.18,18.11c-3.35-6.26-7.08-12.31-11.17-18.11C210.68,62.13,140.74,46.89,88.2,80.63
	c-9.06,5.82-17.25,12.9-24.31,21.04c-21.55,25.14-33.18,57.28-32.74,90.39c1.37,40.84,17.7,79.75,45.88,109.33
	c35.47,38.67,73.87,74.54,114.86,107.31c17.27,14.8,35.33,30.12,54.47,46.87l0.57,0.49c4.95,4.31,12.32,4.31,17.27,0l0.57-0.49
	c19.12-16.73,37-32.07,54.47-46.87c40.99-32.77,79.38-68.64,114.86-107.31c28.18-29.59,44.51-68.5,45.88-109.33
	C480.45,158.95,468.83,126.82,447.3,101.67z M302.25,388.66c-14.97,12.75-30.39,25.9-46.65,40.01
	c-16.26-14.14-31.65-27.26-46.65-40.01C117.68,310.91,57.43,259.55,57.43,192.05c-0.43-26.71,8.9-52.66,26.22-73
	c16.81-19.28,41.18-30.26,66.75-30.1c29.48,0.7,56.68,16.01,72.58,40.85c8.6,12.31,15.38,25.79,20.13,40.04
	c2.24,6.91,9.66,10.69,16.56,8.45c4.01-1.3,7.15-4.44,8.45-8.45c4.75-14.25,11.53-27.73,20.13-40.04
	c25.38-40.67,78.93-53.07,119.6-27.69c7.38,4.61,14.03,10.3,19.73,16.89c17.31,20.34,26.62,46.29,26.17,73
	C453.76,259.57,393.47,310.98,302.25,388.66z"/>
</svg>
