<?xml version="1.0" encoding="utf-8"?>
<!-- Generator: Adobe Illustrator 24.3.0, SVG Export Plug-In . SVG Version: 6.00 Build 0)  -->
<svg version="1.1" id="Layer_1" xmlns="http://www.w3.org/2000/svg" xmlns:xlink="http://www.w3.org/1999/xlink" x="0px" y="0px"
	 viewBox="0 0 512 512" style="enable-background:new 0 0 512 512;" xml:space="preserve">
<path id="noun_Home_3510805" d="M478.95,232.9l-68.07-56.1V62.4c0-3.21-2.6-5.8-5.8-5.8l0,0h-44.61c-3.21,0-5.8,2.6-5.8,5.8l0,0
	v68.07l-95.36-78.81c-2.14-1.74-5.2-1.74-7.34,0L32.29,232.9c-2.45,1.99-2.82,5.58-0.83,8.03c0.02,0.03,0.04,0.05,0.06,0.08
	c2.04,2.43,5.65,2.77,8.11,0.77l33.79-27.89v241.37c0,3.21,2.6,5.8,5.8,5.8c0,0,0,0,0,0h352.72c3.21,0,5.8-2.6,5.8-5.8l0,0V213.88
	l33.79,27.89c1.04,0.85,2.33,1.32,3.67,1.34c3.22-0.02,5.81-2.65,5.79-5.87c-0.01-1.68-0.75-3.27-2.02-4.37L478.95,232.9z
	 M366.23,68.18h33v98.96l-32.95-27.22L366.23,68.18z M304.83,449.51h-98.43v-97.2h98.48L304.83,449.51z M426.19,205.53v244.01
	H316.47V346.41c0-3.21-2.6-5.8-5.8-5.8l0,0H200.6c-3.21,0-5.8,2.6-5.8,5.8l0,0v103.13H85.05V205.56c0.05-0.35,0.05-0.71,0-1.06
	L255.64,63.65l170.69,140.66c-0.09,0.41-0.12,0.83-0.1,1.25L426.19,205.53z"/>
</svg>
