<?xml version="1.0" encoding="utf-8"?>
<!-- Generator: Adobe Illustrator 24.2.3, SVG Export Plug-In . SVG Version: 6.00 Build 0)  -->
<svg version="1.1" id="Layer_1" xmlns="http://www.w3.org/2000/svg" xmlns:xlink="http://www.w3.org/1999/xlink" x="0px" y="0px"
	 viewBox="0 0 512 512" style="enable-background:new 0 0 512 512;" xml:space="preserve">
<style type="text/css">
	.st0{fill-rule:evenodd;clip-rule:evenodd;fill:#707070;}
</style>
<path id="Path_40" class="st0" d="M354.45,323.81L463.24,432.6c8.27,8.72,7.91,22.49-0.81,30.76c-8.4,7.96-21.56,7.96-29.95,0
	L323.69,354.57c-75.94,58.95-185.29,45.18-244.24-30.76S34.28,138.52,110.21,79.58S295.5,34.4,354.45,110.34
	C403.2,173.14,403.2,261,354.45,323.81z M309.25,309.37c50.98-50.98,50.98-133.64,0-184.62s-133.64-50.98-184.62,0
	c-50.98,50.98-50.98,133.64,0,184.62c50.98,50.99,133.64,51,184.62,0.02c0,0,0,0,0,0V309.37z"/>
</svg>
