<?xml version="1.0" encoding="utf-8"?>
<!-- Generator: Adobe Illustrator 23.0.1, SVG Export Plug-In . SVG Version: 6.00 Build 0)  -->
<svg version="1.1" id="Layer_1" xmlns="http://www.w3.org/2000/svg" xmlns:xlink="http://www.w3.org/1999/xlink" x="0px" y="0px"
	 viewBox="0 0 512 512" style="enable-background:new 0 0 512 512;" xml:space="preserve">
<path d="M417.08,109.14H94.92c-13.08,0-23.69,10.6-23.69,23.69s10.61,23.69,23.69,23.69h322.16c13.08,0,23.69-10.6,23.69-23.69
	S430.16,109.14,417.08,109.14z"/>
<path d="M417.08,232.32H94.92c-13.08,0-23.69,10.61-23.69,23.69c0,13.08,10.61,23.69,23.69,23.69h322.16
	c13.08,0,23.69-10.61,23.69-23.69C440.77,242.92,430.16,232.32,417.08,232.32z"/>
<path d="M417.08,355.49H94.92c-13.08,0-23.69,10.61-23.69,23.69c0,13.08,10.61,23.69,23.69,23.69h322.16
	c13.08,0,23.69-10.61,23.69-23.69C440.77,366.1,430.16,355.49,417.08,355.49z"/>
</svg>
