<?xml version="1.0" encoding="utf-8"?>
<!-- Generator: Adobe Illustrator 24.3.0, SVG Export Plug-In . SVG Version: 6.00 Build 0)  -->
<svg version="1.1" id="Layer_1" xmlns="http://www.w3.org/2000/svg" xmlns:xlink="http://www.w3.org/1999/xlink" x="0px" y="0px"
	 viewBox="0 0 512 512" style="enable-background:new 0 0 512 512;" xml:space="preserve">
<style type="text/css">
	.st0{fill:#4FB65C;}
</style>
<path id="Path_1929" class="st0" d="M358.14,37.09l-0.8,0.28c-1.22,0.39-2.29,1.13-3.09,2.13L68.64,380.03
	c-1.02,1.11-1.62,2.54-1.69,4.05l-1.94,83.64c-0.13,3.55,2.64,6.54,6.19,6.67c0.59,0.02,1.17-0.04,1.75-0.17l82.04-16.38
	c1.43-0.3,2.72-1.07,3.65-2.2l285.94-340.53c2.31-2.7,2-6.76-0.7-9.07c-0.03-0.03-0.07-0.06-0.1-0.09l-80.1-67.26
	c-1.48-1.35-3.5-1.94-5.47-1.59L358.14,37.09z M360.14,52.93l70.15,58.91l-25.27,29.9l-69.92-58.7L360.14,52.93z M326.51,92.98
	l70.15,58.91l-239.48,285.4l-70.33-59.17l239.84-285.2L326.51,92.98z M79.81,389.48l67.5,56.68l-69.16,13.91L79.81,389.48z"/>
</svg>
