<?xml version="1.0" encoding="utf-8"?>
<!-- Generator: Adobe Illustrator 23.0.1, SVG Export Plug-In . SVG Version: 6.00 Build 0)  -->
<svg version="1.1" id="Layer_1" xmlns="http://www.w3.org/2000/svg" xmlns:xlink="http://www.w3.org/1999/xlink" x="0px" y="0px"
	 viewBox="0 0 512 512" style="enable-background:new 0 0 512 512;" xml:space="preserve">
<path d="M288,139c-9-9-19-13-32-13s-23,4-32,13s-13,19-13,32s4,23,13,31c9,9,19,13,32,13s23-4,32-13c9-8,13-18,13-31
	S297,148,288,139z M126,363v23h260v-23c0-8-14-18-43-29s-58-16-87-16s-58,5-87,16S126,355,126,363z M196,110c17-17,37-25,60-25
	s43,8,60,25s25,38,25,61s-8,43-25,60s-37,25-60,25s-43-8-60-25s-25-37-25-60S179,127,196,110z M427,363v64H85v-64c0-17,11-33,32-47
	s44-24,69-30s49-9,70-9s45,3,70,9s49,16,70,30S427,346,427,363z"/>
</svg>
