<?xml version="1.0" encoding="utf-8"?>
<!-- Generator: Adobe Illustrator 23.0.1, SVG Export Plug-In . SVG Version: 6.00 Build 0)  -->
<svg version="1.1" id="Layer_1" xmlns="http://www.w3.org/2000/svg" xmlns:xlink="http://www.w3.org/1999/xlink" x="0px" y="0px"
	 viewBox="0 0 512 512" style="enable-background:new 0 0 512 512;" xml:space="preserve">
<path d="M316,231c-17,17-37,25-60,25s-43-8-60-25s-25-37-25-60s8-44,25-61s37-25,60-25s43,8,60,25s25,38,25,61S333,214,316,231z
	 M427,384v43H85v-43c0-25,20-46,59-62c39-15,76-23,112-23s74,8,113,23C408,338,427,359,427,384z"/>
</svg>
