<svg
 height='100px'
 width='100px'
 fill="#000000"
 xmlns="http://www.w3.org/2000/svg"
 xmlns:xlink="http://www.w3.org/1999/xlink"
 version="1.1"
 x="0px"
  y="0px"
  viewBox="0 0 100 100"
  enable-background="new 0 0 100 100"
  xml:space="preserve">
    <g>
        <path
         d="M46.00049,19.17285v25.08691c0,2.20898,1.79102,4,4,4s4-1.79102,4-4V19.17285c0-2.20898-1.79102-4-4-4   S46.00049,16.96387,46.00049,19.17285z">
        </path>
        <path
         d="M67.49561,23.95801c-1.87109-1.1748-4.33984-0.6084-5.51465,1.26074c-1.1748,1.87109-0.61035,4.33984,1.26074,5.51465   c7.33203,4.60352,11.70898,12.50684,11.70898,21.14258c0,13.75781-11.19238,24.95117-24.9502,24.95117   S25.04932,65.63379,25.04932,51.87598c0-8.63574,4.37695-16.53906,11.70898-21.14258   c1.87109-1.1748,2.43555-3.64355,1.26074-5.51465c-1.17383-1.86914-3.64258-2.43555-5.51465-1.26074   c-9.67773,6.07617-15.45508,16.5127-15.45508,27.91797c0,18.16895,14.78223,32.95117,32.95117,32.95117   s32.9502-14.78223,32.9502-32.95117C82.95068,40.4707,77.17334,30.03418,67.49561,23.95801z">
        </path>
    </g>
</svg>