<?xml version="1.0" encoding="utf-8"?>
<!-- Generator: Adobe Illustrator 23.0.1, SVG Export Plug-In . SVG Version: 6.00 Build 0)  -->
<svg version="1.1" id="Layer_1" xmlns="http://www.w3.org/2000/svg" xmlns:xlink="http://www.w3.org/1999/xlink" x="0px" y="0px"
	 viewBox="0 0 512 512" style="enable-background:new 0 0 512 512;" xml:space="preserve">
<path d="M181,180c21-21,46-31,75-31s55,10,76,31s31,47,31,76s-10,54-31,75s-47,32-76,32s-54-11-75-32s-32-46-32-75S160,201,181,180z
	 M106,105c41-41,91-62,150-62s109,21,151,62c41,42,62,92,62,151s-21,109-62,150c-42,42-92,63-151,63s-109-21-150-63
	c-42-41-63-91-63-150S64,147,106,105z M136,376c33,34,73,51,120,51s87-17,121-51c33-33,50-73,50-120s-17-87-50-121
	c-34-33-74-50-121-50s-87,17-120,50c-34,34-51,74-51,121S102,343,136,376z"/>
</svg>
