<svg height='100px' width='100px'  fill="#000000" xmlns="http://www.w3.org/2000/svg" xmlns:xlink="http://www.w3.org/1999/xlink" version="1.1" x="0px" y="0px" viewBox="0 0 64 64" style="enable-background:new 0 0 64 64;" xml:space="preserve"><g><path d="M59.4,29.6c2.6-2.9,4.2-6.7,4.5-10.8H48.6L59.4,29.6z"></path><path d="M47.2,0.1v16.7h16.7C63.4,7.8,56.2,0.6,47.2,0.1z"></path><path d="M45.2,0.1c-9.3,0.5-16.7,8.2-16.7,17.7c0,9.8,8,17.7,17.7,17.7c4.5,0,8.7-1.7,11.8-4.5L45.2,18.2V0.1z"></path><path d="M26.5,17.8c0-6.9,3.6-13,9-16.5H5.2c-2.8,0-5.1,2.3-5.1,5.1v52.3c0,2.8,2.3,5.1,5.1,5.1h42.4   c2.8,0,5.1-2.3,5.1-5.1V36.4c-2.1,0.7-4.3,1.1-6.5,1.1C35.3,37.5,26.5,28.7,26.5,17.8z M13.9,56h-5V27.7h5V56z M23.9,56h-5V33.7h5   V56z M33.9,56h-5V39.8h5V56z M43.9,56h-5v-10h5V56z"></path></g></svg>