<svg height='100px' width='100px'  fill="#000000" xmlns="http://www.w3.org/2000/svg" data-name="Layer 1" viewBox="0 0 64 64" x="0px" y="0px"><title>message notification copy</title><path d="M35.2,19a1,1,0,0,0-1.3.56,10.9,10.9,0,0,0,.81,9.81,1,1,0,0,0,1.7-1,8.93,8.93,0,0,1-.65-8A1,1,0,0,0,35.2,19Z"></path><path d="M47.26,14a10,10,0,0,1,7.11,4.58,1,1,0,0,0,.86.48,1.13,1.13,0,0,0,.52-.14,1,1,0,0,0,.33-1.38,12,12,0,0,0-8.51-5.52,1,1,0,0,0-1.14.84A1,1,0,0,0,47.26,14Z"></path><path d="M57.69,24.6a2.5,2.5,0,0,0-2.21-.17l-3-4.9A8.18,8.18,0,0,0,43.89,16a2.64,2.64,0,0,0,0-.29,2.94,2.94,0,0,0-.45-1.56A3.33,3.33,0,0,0,39.07,13a3.12,3.12,0,0,0-1.54,1.93,3,3,0,0,0,.34,2.36,3.11,3.11,0,0,0,1.45,1.24,7.56,7.56,0,0,0-1.82,3.23,7.12,7.12,0,0,0,.8,5.61l3,4.83a2.31,2.31,0,0,0-.91,1.93,2.67,2.67,0,0,0,1.37,2.18,2.92,2.92,0,0,0,1.4.36,2.78,2.78,0,0,0,1.36-.35l1.38-.75h0A3.79,3.79,0,0,0,48.8,37a3.67,3.67,0,0,0,3.74-3.58,3.4,3.4,0,0,0-.26-1.31l5.3-2.89a2.62,2.62,0,0,0,.11-4.58ZM39.46,15.46a1.13,1.13,0,0,1,.56-.69,1.32,1.32,0,0,1,.64-.16,1.25,1.25,0,0,1,1.09.57,1,1,0,0,1,.12.8,1.13,1.13,0,0,1-.56.69,1.32,1.32,0,0,1-1.73-.41A1,1,0,0,1,39.46,15.46ZM48.8,35a1.8,1.8,0,0,1-1.11-.39l2.79-1.51a1.65,1.65,0,0,1,.06.32A1.67,1.67,0,0,1,48.8,35Z"></path><path d="M40.74,38.06a4.62,4.62,0,0,1-2.39-3.82,4.3,4.3,0,0,1,.47-2.18l-.88-1.43a3.06,3.06,0,0,1-.81.75,3.1,3.1,0,0,1-1.57.44A3,3,0,0,1,33,30.38a12.85,12.85,0,0,1-1-11.6A3,3,0,0,1,34,17a3.15,3.15,0,0,1,.87-.12,3,3,0,0,1,.79.12,5.23,5.23,0,0,1-.19-1.42c-.27-.19-.55-.38-.83-.55l0,0,0,0q-.48-.3-1-.57l-.67-.34-.67-.32-.69-.3-.72-.28-.7-.23-.73-.22-.73-.19c-.42-.1-.85-.19-1.28-.26l-.43-.07-1-.11-.57,0a6.08,6.08,0,0,0-.61,0L24,12A20,20,0,0,0,4,32c0,.35,0,.69,0,1s0,.48,0,.71l0,.41c0,.19,0,.38.08.56s0,.37.08.55a3.55,3.55,0,0,0,.09.47,4.37,4.37,0,0,0,.09.5l0,.13c0,.11,0,.23.08.34.07.32.16.63.25.95v0c.09.3.18.59.28.88s.3.82.47,1.22.3.67.46,1H6a1,1,0,0,0,0,.48,10.51,10.51,0,0,1,0,5.48,10.63,10.63,0,0,1-1.83,3.65A1,1,0,0,0,5,52h.12c2-.24,4.08-.58,6.09-1,1.35-.3,2.7-.63,4-1l1,.46c.4.17.8.32,1.22.47l.88.28h0c.32.09.63.18.95.25l.34.08.13,0a4.37,4.37,0,0,0,.5.09,3.55,3.55,0,0,0,.47.09l.55.08.56.08.41,0c.23,0,.47,0,.71,0s.68,0,1,0,1,0,1.45,0h0l.68-.07c.24,0,.48-.05.71-.09s.47-.07.71-.12l.7-.14.65-.15A14,14,0,0,0,30.37,51l.11,0,.62-.22c.4-.16.8-.32,1.19-.5l.6-.28.07,0,.17-.09c.26-.13.51-.26.76-.41a1.18,1.18,0,0,0,.19-.11c.24-.13.46-.27.69-.42l.47-.31.42-.29.61-.45c.25-.19.49-.39.73-.6h0l.68-.62c.23-.22.46-.44.68-.67a18.72,18.72,0,0,0,1.54-1.78s0,0,0,0a18.79,18.79,0,0,0,1.32-2,15.54,15.54,0,0,0,.91-1.71.38.38,0,0,0,0-.1l0,0h0a.14.14,0,0,0,0-.06c.24-.51.45-1,.64-1.56a4.52,4.52,0,0,1-1.94-.51ZM20,33h0a1,1,0,1,1,1-1A1,1,0,0,1,20,33Zm4,0h0a1,1,0,1,1,1-1A1,1,0,0,1,24,33Zm4,0h0a1,1,0,1,1,1-1A1,1,0,0,1,28,33Z"></path></svg>