<?xml version="1.0" encoding="utf-8"?>
<!-- Generator: Adobe Illustrator 23.0.1, SVG Export Plug-In . SVG Version: 6.00 Build 0)  -->
<svg version="1.1" id="Layer_1" xmlns="http://www.w3.org/2000/svg" xmlns:xlink="http://www.w3.org/1999/xlink" x="0px" y="0px"
	 viewBox="0 0 512 512" style="enable-background:new 0 0 512 512;" xml:space="preserve">
<path d="M265,55l192,192c8,8,12,18,12,30s-4,22-12,30L307,457c-8,8-18,12-30,12s-22-4-30-12L55,265c-8-8-12-18-12-30V85
	c0-11,4-21,13-30c8-8,18-12,29-12h150C247,43,257,47,265,55z M95,139c6,7,13,10,22,10s16-3,23-10c6-6,9-13,9-22s-3-16-9-23
	c-7-6-14-9-23-9s-16,3-22,9c-7,7-10,14-10,23S88,133,95,139z"/>
</svg>
