<?xml version="1.0" encoding="utf-8"?>
<!-- Generator: Adobe Illustrator 23.0.1, SVG Export Plug-In . SVG Version: 6.00 Build 0)  -->
<svg version="1.1" id="Layer_1" xmlns="http://www.w3.org/2000/svg" xmlns:xlink="http://www.w3.org/1999/xlink" x="0px" y="0px"
	 width="100px" height="100px" viewBox="0 0 100 100" style="enable-background:new 0 0 100 100;" xml:space="preserve">
<g>
	<g>
		<path d="M58.9,19.9l-39,39l21.3,21.3l39-39L58.9,19.9z M32.4,53.3l20.9-20.9l2.5,2.5L34.9,55.8L32.4,53.3z M67.5,46.6L46.6,67.5
			L44.1,65L65,44.1L67.5,46.6z M65.9,36.5L36.5,65.9L34,63.4L63.4,34L65.9,36.5z"/>
		<path d="M67.7,10V2.5h-7.5L2.5,60.2v7.5H10v7.5h7.5v7.5H25v7.5h7.5v7.5H40L97.7,40v-7.5h-7.5V25h-7.5v-7.5h-7.5V10L67.7,10
			L67.7,10z M85.1,41.1L41.2,85L15,58.8l43.9-43.9L85.1,41.1z"/>
	</g>
</g>
</svg>
