<?xml version="1.0" encoding="utf-8"?>
<!-- Generator: Adobe Illustrator 23.0.1, SVG Export Plug-In . SVG Version: 6.00 Build 0)  -->
<svg version="1.1" id="Layer_1" xmlns="http://www.w3.org/2000/svg" xmlns:xlink="http://www.w3.org/1999/xlink" x="0px" y="0px"
	 viewBox="0 0 512 512" style="enable-background:new 0 0 512 512;" xml:space="preserve">
<path d="M96,21h256v43H96v299H54V64c0-11,4-21,13-30C75,25,85,21,96,21z M182,107h234c11,0,21,4,30,12c9,9,13,19,13,30v299
	c0,11-4,21-13,30s-19,13-30,13H182c-11,0-21-4-30-13s-13-19-13-30V149c0-11,4-21,13-30C161,111,171,107,182,107z M182,448h234V149
	H182V448z"/>
</svg>
