<svg height='100px' width='100px'  fill="#000000" xmlns="http://www.w3.org/2000/svg" xmlns:xlink="http://www.w3.org/1999/xlink" version="1.1" x="0px" y="0px" viewBox="0 0 100 100" style="enable-background:new 0 0 100 100;" xml:space="preserve"><g><path d="M82.9,82.8c-0.8,0.8-1.8,1.1-2.8,1.1c-1,0-2-0.4-2.8-1.1L50,55.5L22.7,82.8c-0.8,0.8-1.8,1.2-2.8,1.2s-2-0.4-2.8-1.1   c-1.5-1.5-1.5-4,0-5.5L44.5,50L17.1,22.7c-1.5-1.5-1.5-4,0-5.5c1.5-1.5,4-1.5,5.5,0L50,44.5l27.3-27.4c1.5-1.5,4-1.5,5.5,0   c1.5,1.5,1.5,4,0,5.5L55.5,50l27.4,27.3C84.4,78.8,84.4,81.3,82.9,82.8z"></path></g></svg>