<?xml version="1.0" encoding="utf-8"?>
<!-- Generator: Adobe Illustrator 24.3.0, SVG Export Plug-In . SVG Version: 6.00 Build 0)  -->
<svg version="1.1" id="Layer_1" xmlns="http://www.w3.org/2000/svg" xmlns:xlink="http://www.w3.org/1999/xlink" x="0px" y="0px"
	 viewBox="0 0 512 512" style="enable-background:new 0 0 512 512;" xml:space="preserve">
<path id="Path_17" d="M323.34,236l-97.22-53.2c-8.64-4.76-19.5-1.61-24.25,7.03c-1.46,2.65-2.22,5.62-2.21,8.64v105.48
	c-0.03,9.84,7.93,17.85,17.77,17.88c2.98,0.01,5.92-0.73,8.54-2.15l97.22-52.28c8.69-4.67,11.94-15.49,7.27-24.18
	c-1.64-3.05-4.13-5.55-7.16-7.21H323.34z M225.48,290.69v-78.84l72.66,39.76L225.48,290.69z"/>
<path id="Path_18" d="M472.41,167.7v-0.2c-0.38-3.54-4.07-35.05-19.4-51.07c-12.44-13.14-29.39-21.08-47.45-22.23l-2.19-0.26
	l-0.77-0.08c-58.17-4.23-146.03-4.81-146.92-4.81h-0.15c-0.89,0-88.74,0.58-147.45,4.81l-0.77,0.08l-2.04,0.24
	c-18.11,1.22-35.03,9.44-47.18,22.92c-14.59,15.86-18.8,46.69-19.24,50.15v0.45c-0.22,1.48-3.28,36.56-3.28,71.79v32.93
	c0,35.23,3.1,70.32,3.24,71.79v0.22c0.38,3.48,4.07,34.42,19.34,50.45c12.97,13.26,30.49,21.09,49.01,21.92
	c1.79,0.2,3.33,0.38,4.38,0.56l1.02,0.14c33.59,3.2,138.92,4.77,143.38,4.84h0.26c0.88,0,88.74-0.58,146.92-4.81l0.77-0.08
	c0.73-0.1,1.56-0.18,2.46-0.27c17.92-1.02,34.72-9.07,46.74-22.39c14.59-15.86,18.81-46.69,19.24-50.15v-0.45
	c0.13-1.48,3.24-36.56,3.24-71.79v-32.89c0-35.23-3.1-70.31-3.24-71.79H472.41z M449.87,272.42c0,32.57-2.85,66.17-3.11,69.22
	c-1.37,12.73-5.7,24.97-12.65,35.72c-7.77,8.69-18.78,13.8-30.44,14.12c-1.02,0.1-1.91,0.2-2.75,0.31
	c-56.27,4.07-140.82,4.69-144.71,4.71c-4.37-0.06-108.14-1.65-140.72-4.67c-1.67-0.27-3.47-0.48-5.37-0.69
	c-12.35-0.2-24.16-5.13-32.98-13.77l-0.25-0.25c-7.08-10.52-11.35-22.68-12.4-35.32c-0.2-2.33-3.13-36.31-3.13-69.36v-32.93
	c0-32.57,2.84-66.11,3.11-69.22c1.3-12.75,5.64-25,12.65-35.73c7.96-8.88,19.16-14.2,31.08-14.75l2.1-0.22
	c57.1-4.07,142.25-4.69,145.3-4.72c3.05-0.03,88.18,0.65,144.77,4.72l2.27,0.26c11.98,0.49,23.29,5.62,31.56,14.3l0.1,0.11
	c7.12,10.71,11.39,23.06,12.4,35.88c0.19,2.2,3.13,36.25,3.13,69.38L449.87,272.42z"/>
</svg>
